<svg width="300" height="400" viewBox="0 0 300 400" fill="none" xmlns="http://www.w3.org/2000/svg">
  <rect width="300" height="400" rx="16" fill="#F4F6F8"/>
  <rect x="42" y="48" width="216" height="304" rx="10" fill="#FFFFFF" stroke="#D1D9E0" stroke-width="2"/>
  <rect x="72" y="92" width="156" height="18" rx="4" fill="#E3EAF2"/>
  <rect x="72" y="124" width="120" height="12" rx="4" fill="#EDF2F7"/>
  <rect x="72" y="146" width="140" height="12" rx="4" fill="#EDF2F7"/>
  <rect x="72" y="168" width="96" height="12" rx="4" fill="#EDF2F7"/>
  <path d="M90 242C90 214.386 112.386 192 140 192H170C197.614 192 220 214.386 220 242V280H90V242Z" fill="#E7EEF6"/>
  <circle cx="155" cy="228" r="22" fill="#D6E2EE"/>
  <rect x="110" y="294" width="90" height="10" rx="5" fill="#E3EAF2"/>
  <rect x="24" y="48" width="18" height="304" rx="9" fill="#DDE6EF"/>
  <text x="150" y="334" text-anchor="middle" fill="#7B8A9A" font-size="16" font-family="Arial, sans-serif">No Cover</text>
</svg>
