<svg xmlns="http://www.w3.org/2000/svg" viewBox="0 0 64 64" fill="none">
  <defs>
    <linearGradient id="bg" x1="8" y1="6" x2="56" y2="58" gradientUnits="userSpaceOnUse">
      <stop stop-color="#a100ff"/>
      <stop offset="1" stop-color="#7f1dff"/>
    </linearGradient>
    <linearGradient id="page" x1="12" y1="14" x2="52" y2="50" gradientUnits="userSpaceOnUse">
      <stop stop-color="#ffffff" stop-opacity="0.98"/>
      <stop offset="1" stop-color="#f1e9ff"/>
    </linearGradient>
  </defs>

  <rect x="3" y="3" width="58" height="58" rx="14" fill="url(#bg)"/>
  <rect x="3" y="3" width="58" height="58" rx="14" stroke="#f6e8ff" stroke-opacity="0.72" stroke-width="2.4"/>

  <path d="M10.5 13.5c7.2-2.7 14.5-1.8 21.5 2v34.8c-7.2-3.6-14.6-4.4-21.5-1.9V13.5z" fill="url(#page)" stroke="#f5e6ff" stroke-width="1.5"/>
  <path d="M53.5 13.5c-7.2-2.7-14.5-1.8-21.5 2v34.8c7.2-3.6 14.6-4.4 21.5-1.9V13.5z" fill="url(#page)" stroke="#f5e6ff" stroke-width="1.5"/>
  <rect x="31" y="14" width="2" height="36" rx="1" fill="#5f11bf"/>

  <path d="M15 21h12M15 26h13M15 31h10M15 36h12M15 41h9" stroke="#b06cff" stroke-width="1.6" stroke-linecap="round"/>
  <path d="M37 21h12M37 26h10M37 31h13M37 36h9M37 41h11" stroke="#a55dff" stroke-width="1.6" stroke-linecap="round"/>
</svg>
