<svg xmlns="http://www.w3.org/2000/svg" viewBox="0 0 64 64" fill="none">
  <path d="M8 12c8-3 16-2 24 2v38c-8-4-16-5-24-2V12z" fill="#ffffff" stroke="#0b6e6d" stroke-width="1.6"/>
  <path d="M56 12c-8-3-16-2-24 2v38c8-4 16-5 24-2V12z" fill="#e6f2f2" stroke="#0b6e6d" stroke-width="1.6"/>
  <rect x="31" y="12" width="2" height="38" rx="1" fill="#0b6e6d"/>
  <path d="M13 20h12M13 25h14M13 30h11M13 35h13M13 40h10" stroke="#6fb8b6" stroke-width="1.7" stroke-linecap="round"/>
  <path d="M37 20h12M37 25h10M37 30h13M37 35h9M37 40h11" stroke="#74bebe" stroke-width="1.7" stroke-linecap="round"/>
  <rect x="2.5" y="2.5" width="59" height="59" rx="13.5" stroke="#0b6e6d" stroke-width="3"/>
</svg>
